%TF.GenerationSoftware,KiCad,Pcbnew,7.0.10-7.0.10~ubuntu22.04.1*%
%TF.CreationDate,2024-01-29T19:20:00+05:30*%
%TF.ProjectId,bir-bme280-rj11,6269722d-626d-4653-9238-302d726a3131,rev?*%
%TF.SameCoordinates,Original*%
%TF.FileFunction,Legend,Top*%
%TF.FilePolarity,Positive*%
%FSLAX46Y46*%
G04 Gerber Fmt 4.6, Leading zero omitted, Abs format (unit mm)*
G04 Created by KiCad (PCBNEW 7.0.10-7.0.10~ubuntu22.04.1) date 2024-01-29 19:20:00*
%MOMM*%
%LPD*%
G01*
G04 APERTURE LIST*
%ADD10C,0.200000*%
%ADD11C,0.150000*%
%ADD12C,0.120000*%
%ADD13C,1.879600*%
G04 APERTURE END LIST*
D10*
X67595523Y-35486400D02*
X67500285Y-35438780D01*
X67500285Y-35438780D02*
X67309809Y-35438780D01*
X67309809Y-35438780D02*
X67214571Y-35486400D01*
X67214571Y-35486400D02*
X67166952Y-35581638D01*
X67166952Y-35581638D02*
X67166952Y-35629257D01*
X67166952Y-35629257D02*
X67214571Y-35724495D01*
X67214571Y-35724495D02*
X67309809Y-35772114D01*
X67309809Y-35772114D02*
X67452666Y-35772114D01*
X67452666Y-35772114D02*
X67547904Y-35819733D01*
X67547904Y-35819733D02*
X67595523Y-35914971D01*
X67595523Y-35914971D02*
X67595523Y-35962590D01*
X67595523Y-35962590D02*
X67547904Y-36057828D01*
X67547904Y-36057828D02*
X67452666Y-36105447D01*
X67452666Y-36105447D02*
X67309809Y-36105447D01*
X67309809Y-36105447D02*
X67214571Y-36057828D01*
X66595523Y-35438780D02*
X66690761Y-35486400D01*
X66690761Y-35486400D02*
X66738380Y-35534019D01*
X66738380Y-35534019D02*
X66785999Y-35629257D01*
X66785999Y-35629257D02*
X66785999Y-35914971D01*
X66785999Y-35914971D02*
X66738380Y-36010209D01*
X66738380Y-36010209D02*
X66690761Y-36057828D01*
X66690761Y-36057828D02*
X66595523Y-36105447D01*
X66595523Y-36105447D02*
X66452666Y-36105447D01*
X66452666Y-36105447D02*
X66357428Y-36057828D01*
X66357428Y-36057828D02*
X66309809Y-36010209D01*
X66309809Y-36010209D02*
X66262190Y-35914971D01*
X66262190Y-35914971D02*
X66262190Y-35629257D01*
X66262190Y-35629257D02*
X66309809Y-35534019D01*
X66309809Y-35534019D02*
X66357428Y-35486400D01*
X66357428Y-35486400D02*
X66452666Y-35438780D01*
X66452666Y-35438780D02*
X66595523Y-35438780D01*
X65405047Y-35438780D02*
X65405047Y-35962590D01*
X65405047Y-35962590D02*
X65452666Y-36057828D01*
X65452666Y-36057828D02*
X65547904Y-36105447D01*
X65547904Y-36105447D02*
X65738380Y-36105447D01*
X65738380Y-36105447D02*
X65833618Y-36057828D01*
X65405047Y-35486400D02*
X65500285Y-35438780D01*
X65500285Y-35438780D02*
X65738380Y-35438780D01*
X65738380Y-35438780D02*
X65833618Y-35486400D01*
X65833618Y-35486400D02*
X65881237Y-35581638D01*
X65881237Y-35581638D02*
X65881237Y-35676876D01*
X65881237Y-35676876D02*
X65833618Y-35772114D01*
X65833618Y-35772114D02*
X65738380Y-35819733D01*
X65738380Y-35819733D02*
X65500285Y-35819733D01*
X65500285Y-35819733D02*
X65405047Y-35867352D01*
X64785999Y-35438780D02*
X64881237Y-35486400D01*
X64881237Y-35486400D02*
X64928856Y-35581638D01*
X64928856Y-35581638D02*
X64928856Y-36438780D01*
X64024094Y-35486400D02*
X64119332Y-35438780D01*
X64119332Y-35438780D02*
X64309808Y-35438780D01*
X64309808Y-35438780D02*
X64405046Y-35486400D01*
X64405046Y-35486400D02*
X64452665Y-35581638D01*
X64452665Y-35581638D02*
X64452665Y-35962590D01*
X64452665Y-35962590D02*
X64405046Y-36057828D01*
X64405046Y-36057828D02*
X64309808Y-36105447D01*
X64309808Y-36105447D02*
X64119332Y-36105447D01*
X64119332Y-36105447D02*
X64024094Y-36057828D01*
X64024094Y-36057828D02*
X63976475Y-35962590D01*
X63976475Y-35962590D02*
X63976475Y-35867352D01*
X63976475Y-35867352D02*
X64452665Y-35772114D01*
X61206666Y-52597409D02*
X61349523Y-52645028D01*
X61349523Y-52645028D02*
X61397142Y-52692647D01*
X61397142Y-52692647D02*
X61444761Y-52787885D01*
X61444761Y-52787885D02*
X61444761Y-52930742D01*
X61444761Y-52930742D02*
X61397142Y-53025980D01*
X61397142Y-53025980D02*
X61349523Y-53073600D01*
X61349523Y-53073600D02*
X61254285Y-53121219D01*
X61254285Y-53121219D02*
X60873333Y-53121219D01*
X60873333Y-53121219D02*
X60873333Y-52121219D01*
X60873333Y-52121219D02*
X61206666Y-52121219D01*
X61206666Y-52121219D02*
X61301904Y-52168838D01*
X61301904Y-52168838D02*
X61349523Y-52216457D01*
X61349523Y-52216457D02*
X61397142Y-52311695D01*
X61397142Y-52311695D02*
X61397142Y-52406933D01*
X61397142Y-52406933D02*
X61349523Y-52502171D01*
X61349523Y-52502171D02*
X61301904Y-52549790D01*
X61301904Y-52549790D02*
X61206666Y-52597409D01*
X61206666Y-52597409D02*
X60873333Y-52597409D01*
X61873333Y-53121219D02*
X61873333Y-52121219D01*
X61873333Y-52121219D02*
X62206666Y-52835504D01*
X62206666Y-52835504D02*
X62539999Y-52121219D01*
X62539999Y-52121219D02*
X62539999Y-53121219D01*
X63016190Y-52597409D02*
X63349523Y-52597409D01*
X63492380Y-53121219D02*
X63016190Y-53121219D01*
X63016190Y-53121219D02*
X63016190Y-52121219D01*
X63016190Y-52121219D02*
X63492380Y-52121219D01*
X63873333Y-52216457D02*
X63920952Y-52168838D01*
X63920952Y-52168838D02*
X64016190Y-52121219D01*
X64016190Y-52121219D02*
X64254285Y-52121219D01*
X64254285Y-52121219D02*
X64349523Y-52168838D01*
X64349523Y-52168838D02*
X64397142Y-52216457D01*
X64397142Y-52216457D02*
X64444761Y-52311695D01*
X64444761Y-52311695D02*
X64444761Y-52406933D01*
X64444761Y-52406933D02*
X64397142Y-52549790D01*
X64397142Y-52549790D02*
X63825714Y-53121219D01*
X63825714Y-53121219D02*
X64444761Y-53121219D01*
X65016190Y-52549790D02*
X64920952Y-52502171D01*
X64920952Y-52502171D02*
X64873333Y-52454552D01*
X64873333Y-52454552D02*
X64825714Y-52359314D01*
X64825714Y-52359314D02*
X64825714Y-52311695D01*
X64825714Y-52311695D02*
X64873333Y-52216457D01*
X64873333Y-52216457D02*
X64920952Y-52168838D01*
X64920952Y-52168838D02*
X65016190Y-52121219D01*
X65016190Y-52121219D02*
X65206666Y-52121219D01*
X65206666Y-52121219D02*
X65301904Y-52168838D01*
X65301904Y-52168838D02*
X65349523Y-52216457D01*
X65349523Y-52216457D02*
X65397142Y-52311695D01*
X65397142Y-52311695D02*
X65397142Y-52359314D01*
X65397142Y-52359314D02*
X65349523Y-52454552D01*
X65349523Y-52454552D02*
X65301904Y-52502171D01*
X65301904Y-52502171D02*
X65206666Y-52549790D01*
X65206666Y-52549790D02*
X65016190Y-52549790D01*
X65016190Y-52549790D02*
X64920952Y-52597409D01*
X64920952Y-52597409D02*
X64873333Y-52645028D01*
X64873333Y-52645028D02*
X64825714Y-52740266D01*
X64825714Y-52740266D02*
X64825714Y-52930742D01*
X64825714Y-52930742D02*
X64873333Y-53025980D01*
X64873333Y-53025980D02*
X64920952Y-53073600D01*
X64920952Y-53073600D02*
X65016190Y-53121219D01*
X65016190Y-53121219D02*
X65206666Y-53121219D01*
X65206666Y-53121219D02*
X65301904Y-53073600D01*
X65301904Y-53073600D02*
X65349523Y-53025980D01*
X65349523Y-53025980D02*
X65397142Y-52930742D01*
X65397142Y-52930742D02*
X65397142Y-52740266D01*
X65397142Y-52740266D02*
X65349523Y-52645028D01*
X65349523Y-52645028D02*
X65301904Y-52597409D01*
X65301904Y-52597409D02*
X65206666Y-52549790D01*
X66016190Y-52121219D02*
X66111428Y-52121219D01*
X66111428Y-52121219D02*
X66206666Y-52168838D01*
X66206666Y-52168838D02*
X66254285Y-52216457D01*
X66254285Y-52216457D02*
X66301904Y-52311695D01*
X66301904Y-52311695D02*
X66349523Y-52502171D01*
X66349523Y-52502171D02*
X66349523Y-52740266D01*
X66349523Y-52740266D02*
X66301904Y-52930742D01*
X66301904Y-52930742D02*
X66254285Y-53025980D01*
X66254285Y-53025980D02*
X66206666Y-53073600D01*
X66206666Y-53073600D02*
X66111428Y-53121219D01*
X66111428Y-53121219D02*
X66016190Y-53121219D01*
X66016190Y-53121219D02*
X65920952Y-53073600D01*
X65920952Y-53073600D02*
X65873333Y-53025980D01*
X65873333Y-53025980D02*
X65825714Y-52930742D01*
X65825714Y-52930742D02*
X65778095Y-52740266D01*
X65778095Y-52740266D02*
X65778095Y-52502171D01*
X65778095Y-52502171D02*
X65825714Y-52311695D01*
X65825714Y-52311695D02*
X65873333Y-52216457D01*
X65873333Y-52216457D02*
X65920952Y-52168838D01*
X65920952Y-52168838D02*
X66016190Y-52121219D01*
X66778095Y-52740266D02*
X67540000Y-52740266D01*
X68587618Y-53121219D02*
X68254285Y-52645028D01*
X68016190Y-53121219D02*
X68016190Y-52121219D01*
X68016190Y-52121219D02*
X68397142Y-52121219D01*
X68397142Y-52121219D02*
X68492380Y-52168838D01*
X68492380Y-52168838D02*
X68539999Y-52216457D01*
X68539999Y-52216457D02*
X68587618Y-52311695D01*
X68587618Y-52311695D02*
X68587618Y-52454552D01*
X68587618Y-52454552D02*
X68539999Y-52549790D01*
X68539999Y-52549790D02*
X68492380Y-52597409D01*
X68492380Y-52597409D02*
X68397142Y-52645028D01*
X68397142Y-52645028D02*
X68016190Y-52645028D01*
X69301904Y-52121219D02*
X69301904Y-52835504D01*
X69301904Y-52835504D02*
X69254285Y-52978361D01*
X69254285Y-52978361D02*
X69159047Y-53073600D01*
X69159047Y-53073600D02*
X69016190Y-53121219D01*
X69016190Y-53121219D02*
X68920952Y-53121219D01*
X70301904Y-53121219D02*
X69730476Y-53121219D01*
X70016190Y-53121219D02*
X70016190Y-52121219D01*
X70016190Y-52121219D02*
X69920952Y-52264076D01*
X69920952Y-52264076D02*
X69825714Y-52359314D01*
X69825714Y-52359314D02*
X69730476Y-52406933D01*
X71254285Y-53121219D02*
X70682857Y-53121219D01*
X70968571Y-53121219D02*
X70968571Y-52121219D01*
X70968571Y-52121219D02*
X70873333Y-52264076D01*
X70873333Y-52264076D02*
X70778095Y-52359314D01*
X70778095Y-52359314D02*
X70682857Y-52406933D01*
X61182857Y-53826457D02*
X61230476Y-53778838D01*
X61230476Y-53778838D02*
X61325714Y-53731219D01*
X61325714Y-53731219D02*
X61563809Y-53731219D01*
X61563809Y-53731219D02*
X61659047Y-53778838D01*
X61659047Y-53778838D02*
X61706666Y-53826457D01*
X61706666Y-53826457D02*
X61754285Y-53921695D01*
X61754285Y-53921695D02*
X61754285Y-54016933D01*
X61754285Y-54016933D02*
X61706666Y-54159790D01*
X61706666Y-54159790D02*
X61135238Y-54731219D01*
X61135238Y-54731219D02*
X61754285Y-54731219D01*
X62230476Y-54731219D02*
X62420952Y-54731219D01*
X62420952Y-54731219D02*
X62516190Y-54683600D01*
X62516190Y-54683600D02*
X62563809Y-54635980D01*
X62563809Y-54635980D02*
X62659047Y-54493123D01*
X62659047Y-54493123D02*
X62706666Y-54302647D01*
X62706666Y-54302647D02*
X62706666Y-53921695D01*
X62706666Y-53921695D02*
X62659047Y-53826457D01*
X62659047Y-53826457D02*
X62611428Y-53778838D01*
X62611428Y-53778838D02*
X62516190Y-53731219D01*
X62516190Y-53731219D02*
X62325714Y-53731219D01*
X62325714Y-53731219D02*
X62230476Y-53778838D01*
X62230476Y-53778838D02*
X62182857Y-53826457D01*
X62182857Y-53826457D02*
X62135238Y-53921695D01*
X62135238Y-53921695D02*
X62135238Y-54159790D01*
X62135238Y-54159790D02*
X62182857Y-54255028D01*
X62182857Y-54255028D02*
X62230476Y-54302647D01*
X62230476Y-54302647D02*
X62325714Y-54350266D01*
X62325714Y-54350266D02*
X62516190Y-54350266D01*
X62516190Y-54350266D02*
X62611428Y-54302647D01*
X62611428Y-54302647D02*
X62659047Y-54255028D01*
X62659047Y-54255028D02*
X62706666Y-54159790D01*
X63135238Y-54350266D02*
X63897143Y-54350266D01*
X64563809Y-53731219D02*
X64659047Y-53731219D01*
X64659047Y-53731219D02*
X64754285Y-53778838D01*
X64754285Y-53778838D02*
X64801904Y-53826457D01*
X64801904Y-53826457D02*
X64849523Y-53921695D01*
X64849523Y-53921695D02*
X64897142Y-54112171D01*
X64897142Y-54112171D02*
X64897142Y-54350266D01*
X64897142Y-54350266D02*
X64849523Y-54540742D01*
X64849523Y-54540742D02*
X64801904Y-54635980D01*
X64801904Y-54635980D02*
X64754285Y-54683600D01*
X64754285Y-54683600D02*
X64659047Y-54731219D01*
X64659047Y-54731219D02*
X64563809Y-54731219D01*
X64563809Y-54731219D02*
X64468571Y-54683600D01*
X64468571Y-54683600D02*
X64420952Y-54635980D01*
X64420952Y-54635980D02*
X64373333Y-54540742D01*
X64373333Y-54540742D02*
X64325714Y-54350266D01*
X64325714Y-54350266D02*
X64325714Y-54112171D01*
X64325714Y-54112171D02*
X64373333Y-53921695D01*
X64373333Y-53921695D02*
X64420952Y-53826457D01*
X64420952Y-53826457D02*
X64468571Y-53778838D01*
X64468571Y-53778838D02*
X64563809Y-53731219D01*
X65849523Y-54731219D02*
X65278095Y-54731219D01*
X65563809Y-54731219D02*
X65563809Y-53731219D01*
X65563809Y-53731219D02*
X65468571Y-53874076D01*
X65468571Y-53874076D02*
X65373333Y-53969314D01*
X65373333Y-53969314D02*
X65278095Y-54016933D01*
X66278095Y-54350266D02*
X67040000Y-54350266D01*
X67468571Y-53826457D02*
X67516190Y-53778838D01*
X67516190Y-53778838D02*
X67611428Y-53731219D01*
X67611428Y-53731219D02*
X67849523Y-53731219D01*
X67849523Y-53731219D02*
X67944761Y-53778838D01*
X67944761Y-53778838D02*
X67992380Y-53826457D01*
X67992380Y-53826457D02*
X68039999Y-53921695D01*
X68039999Y-53921695D02*
X68039999Y-54016933D01*
X68039999Y-54016933D02*
X67992380Y-54159790D01*
X67992380Y-54159790D02*
X67420952Y-54731219D01*
X67420952Y-54731219D02*
X68039999Y-54731219D01*
X68659047Y-53731219D02*
X68754285Y-53731219D01*
X68754285Y-53731219D02*
X68849523Y-53778838D01*
X68849523Y-53778838D02*
X68897142Y-53826457D01*
X68897142Y-53826457D02*
X68944761Y-53921695D01*
X68944761Y-53921695D02*
X68992380Y-54112171D01*
X68992380Y-54112171D02*
X68992380Y-54350266D01*
X68992380Y-54350266D02*
X68944761Y-54540742D01*
X68944761Y-54540742D02*
X68897142Y-54635980D01*
X68897142Y-54635980D02*
X68849523Y-54683600D01*
X68849523Y-54683600D02*
X68754285Y-54731219D01*
X68754285Y-54731219D02*
X68659047Y-54731219D01*
X68659047Y-54731219D02*
X68563809Y-54683600D01*
X68563809Y-54683600D02*
X68516190Y-54635980D01*
X68516190Y-54635980D02*
X68468571Y-54540742D01*
X68468571Y-54540742D02*
X68420952Y-54350266D01*
X68420952Y-54350266D02*
X68420952Y-54112171D01*
X68420952Y-54112171D02*
X68468571Y-53921695D01*
X68468571Y-53921695D02*
X68516190Y-53826457D01*
X68516190Y-53826457D02*
X68563809Y-53778838D01*
X68563809Y-53778838D02*
X68659047Y-53731219D01*
X69373333Y-53826457D02*
X69420952Y-53778838D01*
X69420952Y-53778838D02*
X69516190Y-53731219D01*
X69516190Y-53731219D02*
X69754285Y-53731219D01*
X69754285Y-53731219D02*
X69849523Y-53778838D01*
X69849523Y-53778838D02*
X69897142Y-53826457D01*
X69897142Y-53826457D02*
X69944761Y-53921695D01*
X69944761Y-53921695D02*
X69944761Y-54016933D01*
X69944761Y-54016933D02*
X69897142Y-54159790D01*
X69897142Y-54159790D02*
X69325714Y-54731219D01*
X69325714Y-54731219D02*
X69944761Y-54731219D01*
X70801904Y-54064552D02*
X70801904Y-54731219D01*
X70563809Y-53683600D02*
X70325714Y-54397885D01*
X70325714Y-54397885D02*
X70944761Y-54397885D01*
D11*
X74358666Y-49086819D02*
X74025333Y-48610628D01*
X73787238Y-49086819D02*
X73787238Y-48086819D01*
X73787238Y-48086819D02*
X74168190Y-48086819D01*
X74168190Y-48086819D02*
X74263428Y-48134438D01*
X74263428Y-48134438D02*
X74311047Y-48182057D01*
X74311047Y-48182057D02*
X74358666Y-48277295D01*
X74358666Y-48277295D02*
X74358666Y-48420152D01*
X74358666Y-48420152D02*
X74311047Y-48515390D01*
X74311047Y-48515390D02*
X74263428Y-48563009D01*
X74263428Y-48563009D02*
X74168190Y-48610628D01*
X74168190Y-48610628D02*
X73787238Y-48610628D01*
X74787238Y-48563009D02*
X75120571Y-48563009D01*
X75263428Y-49086819D02*
X74787238Y-49086819D01*
X74787238Y-49086819D02*
X74787238Y-48086819D01*
X74787238Y-48086819D02*
X75263428Y-48086819D01*
X76025333Y-48563009D02*
X75692000Y-48563009D01*
X75692000Y-49086819D02*
X75692000Y-48086819D01*
X75692000Y-48086819D02*
X76168190Y-48086819D01*
X76692000Y-48086819D02*
X76692000Y-48324914D01*
X76453905Y-48229676D02*
X76692000Y-48324914D01*
X76692000Y-48324914D02*
X76930095Y-48229676D01*
X76549143Y-48515390D02*
X76692000Y-48324914D01*
X76692000Y-48324914D02*
X76834857Y-48515390D01*
X77453905Y-48086819D02*
X77453905Y-48324914D01*
X77215810Y-48229676D02*
X77453905Y-48324914D01*
X77453905Y-48324914D02*
X77692000Y-48229676D01*
X77311048Y-48515390D02*
X77453905Y-48324914D01*
X77453905Y-48324914D02*
X77596762Y-48515390D01*
X74358666Y-32068819D02*
X74025333Y-31592628D01*
X73787238Y-32068819D02*
X73787238Y-31068819D01*
X73787238Y-31068819D02*
X74168190Y-31068819D01*
X74168190Y-31068819D02*
X74263428Y-31116438D01*
X74263428Y-31116438D02*
X74311047Y-31164057D01*
X74311047Y-31164057D02*
X74358666Y-31259295D01*
X74358666Y-31259295D02*
X74358666Y-31402152D01*
X74358666Y-31402152D02*
X74311047Y-31497390D01*
X74311047Y-31497390D02*
X74263428Y-31545009D01*
X74263428Y-31545009D02*
X74168190Y-31592628D01*
X74168190Y-31592628D02*
X73787238Y-31592628D01*
X74787238Y-31545009D02*
X75120571Y-31545009D01*
X75263428Y-32068819D02*
X74787238Y-32068819D01*
X74787238Y-32068819D02*
X74787238Y-31068819D01*
X74787238Y-31068819D02*
X75263428Y-31068819D01*
X76025333Y-31545009D02*
X75692000Y-31545009D01*
X75692000Y-32068819D02*
X75692000Y-31068819D01*
X75692000Y-31068819D02*
X76168190Y-31068819D01*
X76692000Y-31068819D02*
X76692000Y-31306914D01*
X76453905Y-31211676D02*
X76692000Y-31306914D01*
X76692000Y-31306914D02*
X76930095Y-31211676D01*
X76549143Y-31497390D02*
X76692000Y-31306914D01*
X76692000Y-31306914D02*
X76834857Y-31497390D01*
X77453905Y-31068819D02*
X77453905Y-31306914D01*
X77215810Y-31211676D02*
X77453905Y-31306914D01*
X77453905Y-31306914D02*
X77692000Y-31211676D01*
X77311048Y-31497390D02*
X77453905Y-31306914D01*
X77453905Y-31306914D02*
X77596762Y-31497390D01*
X55054666Y-49086819D02*
X54721333Y-48610628D01*
X54483238Y-49086819D02*
X54483238Y-48086819D01*
X54483238Y-48086819D02*
X54864190Y-48086819D01*
X54864190Y-48086819D02*
X54959428Y-48134438D01*
X54959428Y-48134438D02*
X55007047Y-48182057D01*
X55007047Y-48182057D02*
X55054666Y-48277295D01*
X55054666Y-48277295D02*
X55054666Y-48420152D01*
X55054666Y-48420152D02*
X55007047Y-48515390D01*
X55007047Y-48515390D02*
X54959428Y-48563009D01*
X54959428Y-48563009D02*
X54864190Y-48610628D01*
X54864190Y-48610628D02*
X54483238Y-48610628D01*
X55483238Y-48563009D02*
X55816571Y-48563009D01*
X55959428Y-49086819D02*
X55483238Y-49086819D01*
X55483238Y-49086819D02*
X55483238Y-48086819D01*
X55483238Y-48086819D02*
X55959428Y-48086819D01*
X56721333Y-48563009D02*
X56388000Y-48563009D01*
X56388000Y-49086819D02*
X56388000Y-48086819D01*
X56388000Y-48086819D02*
X56864190Y-48086819D01*
X57388000Y-48086819D02*
X57388000Y-48324914D01*
X57149905Y-48229676D02*
X57388000Y-48324914D01*
X57388000Y-48324914D02*
X57626095Y-48229676D01*
X57245143Y-48515390D02*
X57388000Y-48324914D01*
X57388000Y-48324914D02*
X57530857Y-48515390D01*
X58149905Y-48086819D02*
X58149905Y-48324914D01*
X57911810Y-48229676D02*
X58149905Y-48324914D01*
X58149905Y-48324914D02*
X58388000Y-48229676D01*
X58007048Y-48515390D02*
X58149905Y-48324914D01*
X58149905Y-48324914D02*
X58292762Y-48515390D01*
X55054666Y-32068819D02*
X54721333Y-31592628D01*
X54483238Y-32068819D02*
X54483238Y-31068819D01*
X54483238Y-31068819D02*
X54864190Y-31068819D01*
X54864190Y-31068819D02*
X54959428Y-31116438D01*
X54959428Y-31116438D02*
X55007047Y-31164057D01*
X55007047Y-31164057D02*
X55054666Y-31259295D01*
X55054666Y-31259295D02*
X55054666Y-31402152D01*
X55054666Y-31402152D02*
X55007047Y-31497390D01*
X55007047Y-31497390D02*
X54959428Y-31545009D01*
X54959428Y-31545009D02*
X54864190Y-31592628D01*
X54864190Y-31592628D02*
X54483238Y-31592628D01*
X55483238Y-31545009D02*
X55816571Y-31545009D01*
X55959428Y-32068819D02*
X55483238Y-32068819D01*
X55483238Y-32068819D02*
X55483238Y-31068819D01*
X55483238Y-31068819D02*
X55959428Y-31068819D01*
X56721333Y-31545009D02*
X56388000Y-31545009D01*
X56388000Y-32068819D02*
X56388000Y-31068819D01*
X56388000Y-31068819D02*
X56864190Y-31068819D01*
X57388000Y-31068819D02*
X57388000Y-31306914D01*
X57149905Y-31211676D02*
X57388000Y-31306914D01*
X57388000Y-31306914D02*
X57626095Y-31211676D01*
X57245143Y-31497390D02*
X57388000Y-31306914D01*
X57388000Y-31306914D02*
X57530857Y-31497390D01*
X58149905Y-31068819D02*
X58149905Y-31306914D01*
X57911810Y-31211676D02*
X58149905Y-31306914D01*
X58149905Y-31306914D02*
X58388000Y-31211676D01*
X58007048Y-31497390D02*
X58149905Y-31306914D01*
X58149905Y-31306914D02*
X58292762Y-31497390D01*
X72818666Y-49790819D02*
X72818666Y-50505104D01*
X72818666Y-50505104D02*
X72771047Y-50647961D01*
X72771047Y-50647961D02*
X72675809Y-50743200D01*
X72675809Y-50743200D02*
X72532952Y-50790819D01*
X72532952Y-50790819D02*
X72437714Y-50790819D01*
X73818666Y-50790819D02*
X73247238Y-50790819D01*
X73532952Y-50790819D02*
X73532952Y-49790819D01*
X73532952Y-49790819D02*
X73437714Y-49933676D01*
X73437714Y-49933676D02*
X73342476Y-50028914D01*
X73342476Y-50028914D02*
X73247238Y-50076533D01*
D12*
%TO.C,J1*%
X71822000Y-46736000D02*
X71822000Y-39056000D01*
X74482000Y-48006000D02*
X74482000Y-49336000D01*
X74482000Y-39056000D02*
X71822000Y-39056000D01*
X74482000Y-46736000D02*
X71822000Y-46736000D01*
X74482000Y-49336000D02*
X73152000Y-49336000D01*
X74482000Y-46736000D02*
X74482000Y-39056000D01*
%TD*%
D13*
%TO.C,J2*%
X68072000Y-47498000D03*
X65532000Y-46228000D03*
X68072000Y-44958000D03*
X65532000Y-43688000D03*
X68072000Y-42418000D03*
X65532000Y-41148000D03*
%TD*%
M02*
